<svg version="1.1" id="Layer_1" xmlns="http://www.w3.org/2000/svg" xmlns:xlink="http://www.w3.org/1999/xlink" x="0px" y="0px" viewBox="0 0 76.4 76.4" style="enable-background:new 0 0 76.4 76.4;" xml:space="preserve">
<g>
	<g id="Group_243">
		<g id="Group_242" transform="translate(0.176 0.176)">
			<g id="Path_636" transform="translate(325.398)">
				<path style="fill:#FFFFFF;" d="M-287.4,1.8c-4.9,0-9.6,1-14.1,2.8c-4.3,1.8-8.2,4.4-11.5,7.8c-3.3,3.3-5.9,7.2-7.8,11.5
					c-1.9,4.5-2.8,9.2-2.8,14.1c0,4.9,1,9.6,2.8,14.1c1.8,4.3,4.4,8.2,7.8,11.5c3.3,3.3,7.2,5.9,11.5,7.8c4.5,1.9,9.2,2.8,14.1,2.8
					c4.9,0,9.6-1,14.1-2.8c4.3-1.8,8.2-4.4,11.5-7.8c3.3-3.3,5.9-7.2,7.8-11.5c1.9-4.5,2.8-9.2,2.8-14.1c0-4.9-1-9.6-2.8-14.1
					c-1.8-4.3-4.4-8.2-7.8-11.5c-3.3-3.3-7.2-5.9-11.5-7.8C-277.8,2.8-282.5,1.8-287.4,1.8 M-262.9,62.5l-5.6-2.9l-26.1-13.5
					l-0.6-0.3l-0.3-0.6L-309,19.1l-2.9-5.6l5.6,2.9l26.1,13.5l0.6,0.3l0.3,0.6l13.5,26.1L-262.9,62.5 M-287.4,34.7
					c-1.8,0-3.3,1.5-3.3,3.3c0,1.8,1.5,3.4,3.3,3.4c1.8,0,3.3-1.5,3.3-3.4C-284,36.2-285.5,34.7-287.4,34.7 M-287.4-0.2
					c21.1,0,38.2,17.1,38.2,38.2c0,21.1-17.1,38.2-38.2,38.2c-21.1,0-38.2-17.1-38.2-38.2C-325.6,16.9-308.5-0.2-287.4-0.2z
					 M-267.5,57.9l-13.5-26.1l-26.1-13.5l13.5,26.1L-267.5,57.9z M-287.4,32.7c3,0,5.3,2.4,5.3,5.3c0,3-2.4,5.4-5.3,5.4
					c-3,0-5.3-2.4-5.3-5.4C-292.7,35.1-290.3,32.7-287.4,32.7z"></path>
			</g>
		</g>
	</g>
</g>
</svg>