<svg version="1.1" id="Layer_1" xmlns="http://www.w3.org/2000/svg" xmlns:xlink="http://www.w3.org/1999/xlink" x="0px" y="0px" viewBox="0 0 85.3 68" style="enable-background:new 0 0 85.3 68;" xml:space="preserve">
<g id="Group_247" transform="translate(0 870.551)">
	<g>
		<g id="Group_246" transform="translate(0 -870.551)">
			<g id="Group_245" transform="translate(0.118 0.118)">
				<g id="Path_638" transform="translate(543.599 156.665)">
					<path style="fill:#FFFFFF;" d="M-481-154.8c-2.1,0-4.1,0.3-6.1,1c-5.3,1.7-9.3,5-12.2,10.3l-1.6,2.9l-1.8-2.7
						c-0.2-0.3-0.3-0.5-0.5-0.7c-0.3-0.5-0.6-0.9-0.8-1.3c-1.9-2.9-4.5-5.3-7.5-7c-3-1.6-6.3-2.5-9.7-2.5c-2.2,0-4.4,0.4-6.5,1.1
						c-2.2,0.7-4.3,1.8-6.1,3.2c-1.8,1.4-3.3,3-4.5,4.9c-1.2,1.9-2.1,3.9-2.7,6.1c-0.6,2.2-0.8,4.5-0.6,6.9c0.5,7.4,3.5,14.1,9,20.6
						c4,4.6,8.6,8.7,14.1,12.4c4.8,3.2,10.3,6.2,16.6,9c0,0,0.1,0,0.1,0c0.2,0,0.6-0.1,0.8-0.2c10.1-4.3,18.4-9.4,25.5-15.7
						c4.2-3.7,7.3-7.3,9.7-11c2.7-4.3,4.3-8.7,5-13.6c0.4-3.1,0.2-6.1-0.7-9c-0.8-2.7-2.2-5.2-4.1-7.4
						C-469.5-152.2-475.1-154.8-481-154.8 M-481-156.8c13.1,0,24.3,11.8,22.3,25.9c-1.5,10.8-7.5,18.9-15.4,25.8
						c-7.7,6.9-16.6,12-26.1,16c-0.5,0.2-1,0.3-1.6,0.3c-0.3,0-0.6,0-0.9-0.2c-11.9-5.2-22.9-11.9-31.5-21.9
						c-5.4-6.2-8.9-13.3-9.5-21.7c-0.7-10.4,5.5-19.8,15.3-23.1c2.3-0.8,4.8-1.2,7.1-1.2c7.4,0,14.6,3.7,18.8,10.3
						c0.4,0.6,0.8,1.2,1.3,2c3.1-5.5,7.4-9.4,13.4-11.2C-485.4-156.4-483.2-156.8-481-156.8z"></path>
				</g>
			</g>
		</g>
	</g>
</g>
</svg>