 <svg version="1.1" viewBox="0 0 57.6 97">
      <g id="Group_241" transform="translate(0 657)">
        <g id="Path_631" transform="translate(-147.242 -224.285)">
          <path d="M172.7-395.2v32.2h6.7v-32.2H172.7z M177.4-365h-2.7v-28.1h2.7V-365z"></path>
        </g>
        <g>
          <g id="Group_240" transform="translate(0 -657)">
            <g id="Group_237" transform="translate(0.223 0.223)">
              <g id="Path_632" transform="translate(61.481 335.209)">
                <path d="M-40.5-267.6v-28.2h-5.3c-3.7,0-6.8-3-6.8-6.8v-2.7c0-3.7,3-6.8,6.8-6.8c5.9,0,10.7,4.4,11.5,10
                  h3.1c0.8-5.6,5.6-10,11.5-10c3.7,0,6.8,3,6.8,6.8v2.6c0,3.7-3,6.8-6.8,6.8h-5.3v28.2h4c-0.9-7.2,1.6-14.5,6.9-19.6
                  c2.6-2.5,4.6-5.5,6-8.8c1.3-3.2,2.1-6.6,2.1-10.1c0-3.5-0.6-6.9-1.8-10.2c-1.3-3.4-3.3-6.4-5.8-9c-2.6-2.6-5.6-4.7-9-6.1
                  c-3.3-1.4-6.7-2-10.3-2c-6.7,0-13.2,2.5-18.2,7.1c-2.6,2.5-4.7,5.4-6.2,8.7c-1.4,3.2-2.2,6.6-2.3,10.1
                  c-0.1,3.5,0.4,6.9,1.7,10.2c1.2,3.4,3.1,6.4,5.6,9.1c0.4,0.4,0.8,0.8,1.2,1.2l0.6,0.6v0.1c4.4,4.6,6.7,10.7,6.3,17.1l-0.1,1.8
                  H-40.5 M-38.5-265.6h-8l0.2-3.9c0.3-6-2-11.9-6.3-16.1v-0.1c-0.4-0.4-0.9-0.8-1.3-1.3c-10.9-11.6-10.4-29.9,1.3-40.9
                  c5.5-5.1,12.5-7.6,19.5-7.6c7.5,0,15.1,2.9,20.7,8.7c11.2,11.4,10.9,29.7-0.5,40.9c-4.9,4.7-7.2,11.4-6.2,18.1l0.2,2h-8.2
                  v-32.2h7.3c2.6,0,4.8-2.1,4.8-4.8v-2.6c0-2.6-2.1-4.8-4.8-4.8c-5.3,0-9.6,4.3-9.6,9.6v0.4h-6.9v-0.4c0-5.3-4.3-9.6-9.6-9.6
                  c-2.6,0-4.8,2.1-4.8,4.8v2.7c0,2.6,2.1,4.8,4.8,4.8h7.3V-265.6z"></path>
              </g>
            </g>
            <g id="Group_238" transform="translate(17.393 82.748)">
              <g id="Path_633" transform="translate(7.217 15.142)">
                <path d="M-6.4-13.1h21.1c0.6,0,1.1-0.5,1.1-1.1c0-0.6-0.5-1.1-1.1-1.1H-6.4c-0.6,0-1.1,0.5-1.1,1.1
                  C-7.5-13.6-7-13.1-6.4-13.1z"></path>
                <path d="M14.7-13.1H-6.4c-0.6,0-1.1-0.5-1.1-1.1c0-0.6,0.5-1.1,1.1-1.1h21.1c0.6,0,1.1,0.5,1.1,1.1
                  C15.8-13.6,15.3-13.1,14.7-13.1z"></path>
              </g>
            </g>
            <g id="Group_239" transform="translate(20.589 95)">
              <g id="Path_634" transform="translate(7.231)">
                <path d="M-6.4-0.2c-0.6,0-1.1,0.5-1.1,1.1C-7.5,1.5-7,2-6.4,2H8.3c0.6,0,1.1-0.5,1.1-1.1
                  c0-0.6-0.5-1.1-1.1-1.1H-6.4z"></path>
                <path d="M-6.4-0.2H8.3c0.6,0,1.1,0.5,1.1,1.1C9.4,1.5,8.9,2,8.3,2H-6.4C-7,2-7.5,1.5-7.5,0.9
                  C-7.5,0.3-7-0.2-6.4-0.2z"></path>
              </g>
            </g>
          </g>
        </g>
      </g>
      </svg>