<?xml version="1.0" encoding="utf-8"?>
<!-- Generator: Adobe Illustrator 23.0.3, SVG Export Plug-In . SVG Version: 6.00 Build 0)  -->
<svg version="1.1" id="design:kommunikation_1_" xmlns="http://www.w3.org/2000/svg" xmlns:xlink="http://www.w3.org/1999/xlink"
	 x="0px" y="0px" viewBox="0 0 230 61" style="enable-background:new 0 0 230 61;" xml:space="preserve">
<g id="design:kommunikation" style="display:none;">
	<g style="display:inline;">
		<path style="fill-rule:evenodd;clip-rule:evenodd;fill:#A1A1A1;" d="M8.5,56.3c-0.1-0.1-0.1-0.2-0.1-0.3v-8.9
			c0-0.4-0.1-0.5-0.4-0.5h-3v1.4H6v2.4c-0.6-0.7-1.4-1.1-2.4-1.1c-0.4,0-0.8,0.1-1.3,0.3c-0.4,0.2-0.8,0.4-1.2,0.8
			c-0.4,0.3-0.7,0.8-0.9,1.4c-0.2,0.6-0.3,1.3-0.3,2c0,0.8,0.1,1.4,0.3,2c0.2,0.6,0.5,1,0.8,1.3c0.3,0.3,0.7,0.5,1.1,0.7
			c0.4,0.1,0.8,0.2,1.3,0.2c1.1,0,1.9-0.4,2.6-1.1c0.1,0.6,0.2,0.9,0.4,0.9h2.8v-1.3H8.8C8.7,56.4,8.6,56.4,8.5,56.3z M6,55.8
			c-0.5,0.4-1.1,0.7-1.7,0.7c-1.3,0-1.9-1-1.9-2.9c0-1,0.2-1.7,0.6-2.1c0.4-0.4,0.9-0.6,1.5-0.6c0.5,0,1,0.1,1.6,0.4V55.8z
			 M17.2,49.2c-1.3,0-2.3,0.4-3.1,1.2S13,52.2,13,53.6s0.4,2.4,1.1,3.1c0.7,0.8,1.8,1.1,3.3,1.1c1.3,0,2.5-0.3,3.4-0.8v-1.5h-1.3
			c-0.3,0.3-0.5,0.6-0.8,0.7c-0.2,0.1-0.6,0.2-1.1,0.2c-1.4,0-2.1-0.8-2.2-2.4H21c0,0,0-0.1,0-0.2c0-0.1,0-0.3,0-0.4
			C21.1,50.6,19.8,49.2,17.2,49.2z M15.5,52.6c0.2-1.4,0.8-2,1.8-2c0.5,0,0.8,0.2,1.1,0.5c0.2,0.3,0.4,0.8,0.4,1.6H15.5z M28.6,52.5
			c-0.7-0.1-1.1-0.2-1.4-0.4c-0.2-0.2-0.4-0.4-0.4-0.6c0-0.3,0.1-0.5,0.4-0.6c0.2-0.2,0.6-0.2,1-0.2c0.8,0,1.4,0.3,1.7,0.8h1.3v-1.9
			c-0.7-0.2-1.7-0.4-2.9-0.4c-1.1,0-1.9,0.2-2.5,0.7c-0.6,0.5-0.9,1.1-0.9,1.9c0,0.8,0.2,1.4,0.6,1.8c0.4,0.4,1.1,0.6,2,0.8
			c0.7,0.1,1.1,0.2,1.4,0.4c0.2,0.1,0.4,0.4,0.4,0.7c0,0.3-0.1,0.6-0.4,0.7c-0.3,0.2-0.6,0.3-1.1,0.3c-0.4,0-0.7-0.1-1.1-0.3
			c-0.3-0.2-0.5-0.4-0.6-0.7h-1.3v1.9c0.9,0.3,1.9,0.4,3,0.4c1.2,0,2.2-0.2,2.8-0.7c0.6-0.5,0.9-1.1,0.9-2c0-0.8-0.2-1.4-0.6-1.8
			C30.4,53,29.7,52.7,28.6,52.5z M38.6,56.3c-0.1-0.1-0.1-0.2-0.1-0.3v-5.8c0-0.6-0.1-0.9-0.4-0.9h-3v1.4h0.7c0.1,0,0.2,0,0.3,0.1
			c0.1,0.1,0.1,0.2,0.1,0.3V56c0,0.1,0,0.2-0.1,0.3c-0.1,0.1-0.2,0.1-0.3,0.1h-0.6v1.3h4.4v-1.3h-0.6C38.8,56.4,38.7,56.4,38.6,56.3
			z M37.3,48.7c0.4,0,0.7-0.1,0.9-0.4c0.2-0.2,0.4-0.5,0.4-0.9c0-0.3-0.1-0.6-0.4-0.9c-0.2-0.2-0.5-0.4-0.9-0.4s-0.7,0.1-0.9,0.4
			c-0.2,0.2-0.4,0.5-0.4,0.9c0,0.3,0.1,0.6,0.4,0.9C36.7,48.6,37,48.7,37.3,48.7z M46.8,49.2c-1,0-1.8,0.3-2.5,0.8
			c-0.6,0.5-0.9,1.2-0.9,2c0,0.9,0.4,1.6,1.1,2.1c-0.7,0.4-1,1-1,1.6c0,0.6,0.2,1,0.7,1.2c-1,0.4-1.5,1-1.5,1.8
			c0,1.3,1.2,1.9,3.6,1.9c1.6,0,2.7-0.3,3.4-0.8c0.7-0.5,1.1-1.3,1.1-2.2c0-0.7-0.2-1.2-0.6-1.6c-0.4-0.3-1.1-0.5-2-0.5h-2.3
			c-0.5,0-0.7-0.2-0.7-0.5c0-0.2,0-0.4,0.1-0.5c0.5,0.1,1,0.2,1.5,0.2c1,0,1.8-0.2,2.5-0.7c0.6-0.5,0.9-1.1,0.9-1.9
			c0-0.3-0.1-0.6-0.2-0.9c0-0.1,0-0.1,0.1-0.2c0.1-0.1,0.2-0.1,0.2-0.1h0.5v-1.4h-2.9C47.5,49.2,47.1,49.2,46.8,49.2z M47.6,57.3
			c0.7,0,1.1,0.2,1.1,0.7c0,0.7-0.8,1.1-2.3,1.1c-0.6,0-1.1-0.1-1.3-0.3c-0.3-0.2-0.4-0.5-0.4-0.8c0-0.3,0-0.5,0.1-0.7H47.6z
			 M47.7,53c-0.2,0.3-0.6,0.4-1,0.4c-0.4,0-0.7-0.1-1-0.4c-0.2-0.3-0.4-0.6-0.4-1.1c0-0.5,0.1-0.8,0.4-1.1c0.2-0.2,0.6-0.4,1-0.4
			c0.4,0,0.7,0.1,1,0.4c0.2,0.2,0.4,0.6,0.4,1.1C48.1,52.4,48,52.8,47.7,53z M63.4,56.3c-0.1-0.1-0.1-0.2-0.1-0.3v-4.7
			c0-1.4-0.7-2.1-2.2-2.1c-1.2,0-2.3,0.4-3.1,1.2c0-0.4-0.1-0.7-0.1-0.9c-0.1-0.2-0.2-0.2-0.3-0.2h-2.9v1.4h0.6c0.1,0,0.2,0,0.3,0.1
			c0.1,0.1,0.1,0.2,0.1,0.3V56c0,0.1,0,0.2-0.1,0.3c-0.1,0.1-0.2,0.1-0.3,0.1h-0.6v1.3H59v-1.3h-1v-5.1c0.7-0.2,1.3-0.3,1.8-0.3
			c0.4,0,0.7,0.1,0.9,0.2c0.2,0.2,0.2,0.4,0.2,0.8v4.3h-1v1.3h4.1v-1.3h-0.4C63.6,56.4,63.5,56.4,63.4,56.3z M69.3,55.3
			c-0.4,0-0.7,0.1-0.9,0.4c-0.3,0.3-0.4,0.6-0.4,0.9c0,0.4,0.1,0.7,0.4,0.9c0.3,0.2,0.6,0.4,0.9,0.4c0.4,0,0.7-0.1,0.9-0.4
			c0.3-0.2,0.4-0.5,0.4-0.9c0-0.4-0.1-0.7-0.4-0.9C69.9,55.4,69.6,55.3,69.3,55.3z M69.3,50.6c-0.4,0-0.7,0.1-0.9,0.4
			c-0.3,0.3-0.4,0.6-0.4,0.9c0,0.4,0.1,0.7,0.4,0.9c0.3,0.2,0.6,0.4,0.9,0.4c0.4,0,0.7-0.1,0.9-0.4c0.3-0.2,0.4-0.5,0.4-0.9
			c0-0.4-0.1-0.7-0.4-0.9C69.9,50.7,69.6,50.6,69.3,50.6z M82.3,56l-2.2-3.2l1.8-1.7c0.2-0.2,0.4-0.3,0.7-0.3h0.4v-1.4h-3.8v1.4h0.3
			c0.2,0,0.3,0.1,0.3,0.2c0,0.1,0,0.3-0.2,0.4l-2.1,2.1v-6.4c0-0.4-0.1-0.5-0.4-0.5h-2.9v1.4h0.6c0.1,0,0.2,0,0.3,0.1
			c0.1,0.1,0.1,0.2,0.1,0.3V56c0,0.1,0,0.2-0.1,0.3c-0.1,0.1-0.2,0.1-0.3,0.1h-0.6v1.3h4.1v-1.3h-0.8v-1.2l0.9-0.9l2.3,3.4h2.3v-1.3
			H83C82.8,56.4,82.5,56.3,82.3,56z M90.5,49.2c-1.3,0-2.3,0.4-3.2,1.2c-0.8,0.8-1.3,1.9-1.3,3.2c0,1.3,0.4,2.4,1.3,3.1
			c0.8,0.8,1.9,1.2,3.2,1.2c1.3,0,2.3-0.4,3.2-1.2c0.8-0.8,1.3-1.8,1.3-3.1c0-1.3-0.4-2.4-1.3-3.2C92.8,49.6,91.8,49.2,90.5,49.2z
			 M92,55.7c-0.4,0.5-0.9,0.7-1.5,0.7c-0.6,0-1.1-0.2-1.5-0.7c-0.4-0.5-0.6-1.2-0.6-2.1c0-0.9,0.2-1.6,0.6-2.1
			c0.4-0.5,0.9-0.7,1.5-0.7c0.6,0,1.1,0.2,1.5,0.7c0.4,0.5,0.6,1.2,0.6,2.1C92.6,54.5,92.4,55.2,92,55.7z M111.4,56.3
			c-0.1-0.1-0.1-0.2-0.1-0.3v-4.7c0-1.4-0.7-2.1-2.1-2.1c-1,0-2.1,0.4-3.1,1.3c-0.2-0.9-0.9-1.3-2-1.3c-1,0-2,0.4-3,1.2
			c0-0.4-0.1-0.7-0.1-0.9c-0.1-0.2-0.2-0.2-0.3-0.2h-2.9v1.4h0.6c0.1,0,0.2,0,0.3,0.1c0.1,0.1,0.1,0.2,0.1,0.3V56
			c0,0.1,0,0.2-0.1,0.3c-0.1,0.1-0.2,0.1-0.3,0.1h-0.6v1.3h4.2v-1.3h-0.9v-5.1c0.6-0.2,1.2-0.3,1.8-0.3c0.4,0,0.6,0.1,0.8,0.2
			c0.1,0.1,0.2,0.4,0.2,0.8v4.4H103v1.3h4.1v-1.3h-0.9v-5.1c0.6-0.2,1.2-0.3,1.8-0.3c0.4,0,0.6,0.1,0.8,0.2c0.1,0.1,0.2,0.4,0.2,0.8
			v4.4h-0.9v1.3h4.1v-1.3h-0.4C111.6,56.4,111.5,56.4,111.4,56.3z M129.7,56.3c-0.1-0.1-0.1-0.2-0.1-0.3v-4.7c0-1.4-0.7-2.1-2.1-2.1
			c-1,0-2.1,0.4-3.1,1.3c-0.2-0.9-0.9-1.3-2-1.3c-1,0-2,0.4-3,1.2c0-0.4-0.1-0.7-0.1-0.9c-0.1-0.2-0.2-0.2-0.3-0.2H116v1.4h0.6
			c0.1,0,0.2,0,0.3,0.1c0.1,0.1,0.1,0.2,0.1,0.3V56c0,0.1,0,0.2-0.1,0.3c-0.1,0.1-0.2,0.1-0.3,0.1h-0.6v1.3h4.2v-1.3h-0.9v-5.1
			c0.6-0.2,1.2-0.3,1.8-0.3c0.4,0,0.6,0.1,0.8,0.2c0.1,0.1,0.2,0.4,0.2,0.8v4.4h-0.9v1.3h4.1v-1.3h-0.9v-5.1
			c0.6-0.2,1.2-0.3,1.8-0.3c0.4,0,0.6,0.1,0.8,0.2c0.1,0.1,0.2,0.4,0.2,0.8v4.4h-0.9v1.3h4.1v-1.3H130
			C129.9,56.4,129.8,56.4,129.7,56.3z M143,56.3c-0.1-0.1-0.1-0.2-0.1-0.3v-6.6h-3.4v1.4h1.1v5.1c-0.7,0.3-1.2,0.4-1.8,0.4
			c-0.4,0-0.7-0.1-0.9-0.3c-0.2-0.2-0.3-0.5-0.3-0.9v-5.7h-3.3v1.4h0.5c0.1,0,0.2,0,0.3,0.1c0.1,0.1,0.1,0.2,0.1,0.3v4.6
			c0,1.4,0.8,2.1,2.3,2.1c1.2,0,2.2-0.4,3-1.2c0,0.4,0.1,0.7,0.2,0.8c0.1,0.1,0.2,0.2,0.3,0.2h2.8v-1.3h-0.5
			C143.1,56.4,143,56.4,143,56.3z M156.1,56.3c-0.1-0.1-0.1-0.2-0.1-0.3v-4.7c0-1.4-0.7-2.1-2.2-2.1c-1.2,0-2.3,0.4-3.1,1.2
			c0-0.4-0.1-0.7-0.1-0.9c-0.1-0.2-0.2-0.2-0.3-0.2h-2.9v1.4h0.6c0.1,0,0.2,0,0.3,0.1c0.1,0.1,0.1,0.2,0.1,0.3V56
			c0,0.1,0,0.2-0.1,0.3c-0.1,0.1-0.2,0.1-0.3,0.1h-0.6v1.3h4.3v-1.3h-1v-5.1c0.7-0.2,1.3-0.3,1.8-0.3c0.4,0,0.7,0.1,0.9,0.2
			c0.2,0.2,0.2,0.4,0.2,0.8v4.3h-1v1.3h4.1v-1.3h-0.4C156.3,56.4,156.2,56.4,156.1,56.3z M162.6,48.7c0.4,0,0.7-0.1,0.9-0.4
			c0.2-0.2,0.4-0.5,0.4-0.9c0-0.3-0.1-0.6-0.4-0.9c-0.2-0.2-0.5-0.4-0.9-0.4s-0.7,0.1-0.9,0.4c-0.2,0.2-0.4,0.5-0.4,0.9
			c0,0.3,0.1,0.6,0.4,0.9C161.9,48.6,162.2,48.7,162.6,48.7z M163.9,56.3c-0.1-0.1-0.1-0.2-0.1-0.3v-5.8c0-0.6-0.1-0.9-0.4-0.9h-3
			v1.4h0.7c0.1,0,0.2,0,0.3,0.1c0.1,0.1,0.1,0.2,0.1,0.3V56c0,0.1,0,0.2-0.1,0.3c-0.1,0.1-0.2,0.1-0.3,0.1h-0.6v1.3h4.4v-1.3h-0.6
			C164.1,56.4,164,56.4,163.9,56.3z M176.3,56l-2.2-3.2l1.8-1.7c0.2-0.2,0.4-0.3,0.7-0.3h0.4v-1.4h-3.8v1.4h0.3
			c0.2,0,0.3,0.1,0.3,0.2c0,0.1,0,0.3-0.2,0.4l-2.1,2.1v-6.4c0-0.4-0.1-0.5-0.4-0.5h-2.9v1.4h0.6c0.1,0,0.2,0,0.3,0.1
			c0.1,0.1,0.1,0.2,0.1,0.3V56c0,0.1,0,0.2-0.1,0.3c-0.1,0.1-0.2,0.1-0.3,0.1h-0.6v1.3h4.1v-1.3h-0.8v-1.2l0.9-0.9l2.3,3.4h2.3v-1.3
			h-0.2C176.7,56.4,176.5,56.3,176.3,56z M187.5,56.3c-0.1-0.1-0.1-0.2-0.1-0.3v-4.2c0-0.9-0.3-1.6-0.8-2c-0.5-0.4-1.4-0.6-2.5-0.6
			c-1.4,0-2.5,0.2-3.5,0.6v1.7h1.1c0.6-0.5,1.2-0.8,1.9-0.8c1,0,1.5,0.4,1.5,1.2v0.9c-0.5-0.1-1.1-0.2-1.7-0.2c-1,0-1.8,0.2-2.4,0.6
			c-0.6,0.4-0.9,1.1-0.9,1.9c0,0.8,0.2,1.4,0.7,1.9c0.5,0.4,1.1,0.7,2,0.7c1.1,0,1.9-0.3,2.4-1c0.2,0.7,0.8,1.1,1.7,1.1
			c0.6,0,1.1-0.1,1.4-0.3v-1.1h-0.4C187.7,56.4,187.6,56.4,187.5,56.3z M185.1,55.9c-0.4,0.4-0.9,0.6-1.5,0.6
			c-0.9,0-1.3-0.4-1.3-1.2c0-0.8,0.5-1.2,1.5-1.2c0.5,0,0.9,0,1.2,0.1V55.9z M195.3,56.2c-0.2-0.1-0.3-0.4-0.3-0.8v-4.6h1.7v-1.4
			H195v-2.2h-2.3v2.2h-1v1.4h1v4.9c0,0.8,0.2,1.4,0.6,1.8c0.4,0.3,1.1,0.5,1.9,0.5c0.6,0,1.1-0.1,1.5-0.2v-1.2h-0.6
			C195.7,56.4,195.4,56.3,195.3,56.2z M203,48.7c0.4,0,0.7-0.1,0.9-0.4c0.2-0.2,0.4-0.5,0.4-0.9c0-0.3-0.1-0.6-0.4-0.9
			c-0.2-0.2-0.5-0.4-0.9-0.4c-0.4,0-0.7,0.1-0.9,0.4c-0.2,0.2-0.4,0.5-0.4,0.9c0,0.3,0.1,0.6,0.4,0.9
			C202.4,48.6,202.7,48.7,203,48.7z M204.3,56.3c-0.1-0.1-0.1-0.2-0.1-0.3v-5.8c0-0.6-0.1-0.9-0.4-0.9h-3v1.4h0.7
			c0.1,0,0.2,0,0.3,0.1c0.1,0.1,0.1,0.2,0.1,0.3V56c0,0.1,0,0.2-0.1,0.3c-0.1,0.1-0.2,0.1-0.3,0.1h-0.6v1.3h4.4v-1.3h-0.6
			C204.5,56.4,204.4,56.4,204.3,56.3z M213.2,49.2c-1.3,0-2.3,0.4-3.2,1.2c-0.8,0.8-1.3,1.9-1.3,3.2c0,1.3,0.4,2.4,1.3,3.1
			c0.8,0.8,1.9,1.2,3.2,1.2c1.3,0,2.3-0.4,3.2-1.2c0.8-0.8,1.3-1.8,1.3-3.1c0-1.3-0.4-2.4-1.3-3.2C215.5,49.6,214.4,49.2,213.2,49.2
			z M214.7,55.7c-0.4,0.5-0.9,0.7-1.5,0.7c-0.6,0-1.1-0.2-1.5-0.7c-0.4-0.5-0.6-1.2-0.6-2.1c0-0.9,0.2-1.6,0.6-2.1
			c0.4-0.5,0.9-0.7,1.5-0.7c0.6,0,1.1,0.2,1.5,0.7c0.4,0.5,0.6,1.2,0.6,2.1C215.2,54.5,215,55.2,214.7,55.7z M229.4,56.4
			c-0.1,0-0.2,0-0.3-0.1c-0.1-0.1-0.1-0.2-0.1-0.3v-4.7c0-1.4-0.7-2.1-2.2-2.1c-1.2,0-2.3,0.4-3.1,1.2c0-0.4-0.1-0.7-0.1-0.9
			c-0.1-0.2-0.2-0.2-0.3-0.2h-2.9v1.4h0.6c0.1,0,0.2,0,0.3,0.1c0.1,0.1,0.1,0.2,0.1,0.3V56c0,0.1,0,0.2-0.1,0.3
			c-0.1,0.1-0.2,0.1-0.3,0.1h-0.6v1.3h4.3v-1.3h-1v-5.1c0.7-0.2,1.3-0.3,1.8-0.3c0.4,0,0.7,0.1,0.9,0.2c0.2,0.2,0.2,0.4,0.2,0.8v4.3
			h-1v1.3h4.1v-1.3H229.4z"/>
	</g>
</g>
<path style="fill:#FF650D;" d="M182.4,16.5l0.4,0c4,0,4.1-2.4,4.1-5.8c0-3.3,0-5.9-3.9-5.9h-2.6v29.9h-4.9V0.1h7.4
	c2.7,0,4.7,0.6,6.4,2.4c1.7,1.8,2.2,4,2.2,8.1c0,3-0.2,5-1.4,6.9c-1.4,2.2-3.5,3.6-7.2,3.6h-0.5V16.5z"/>
<path style="fill:#FF650D;" d="M0,0.1h4.8l6.4,18.3h0.1l6.3-18.3h4.8v34.5h-4.9v-21h-0.1l-4.9,14.8H9.9L5,13.6H4.9v21H0V0.1z"/>
<path style="fill:#FF650D;" d="M31.9,29.7h9.8v5H27V0.1h14.7v4.7h-9.8V29.7z"/>
<path style="fill:#FF650D;" d="M51.8,30h0.3c2.8,0,3.8-1.4,3.8-4.3V9c0-2.7-0.9-4.3-3.8-4.3h-2.3v29.9h-4.9V0.1h7.3
	c5.6,0,8.7,3.3,8.7,8.9v16.2c0,6.4-3.3,9.5-9.1,9.5V30z"/>
<path style="fill:#FF650D;" d="M65.7,0.1h4.9v34.5h-4.9V0.1z"/>
<path style="fill:#FF650D;" d="M80.4,29.7h9.8v5H75.5V0.1h14.8v4.7h-9.8V29.7z"/>
<path style="fill:#FF650D;" d="M101.5,4.7c-1.8,0-3.3,1.1-3.3,3.5v18.2c0,2.4,1.6,3.5,3.3,3.5c1.8,0,3.3-1.1,3.3-3.5V20h-3.9v-4.4
	h8.9v10.9c0,5.6-4.3,8.4-8.3,8.4s-8.3-2.8-8.3-8.4V8.2c0-5.6,4.3-8.4,8.3-8.4V4.7z"/>
<path style="fill:#FF650D;" d="M120.6,15.5l1.2,0c3.4,0,4-1.9,4-5.4c0-3.5-0.6-5.4-4.2-5.4h-2.6v29.9h-5V0.1h8
	c5.9,0,8.7,3.4,8.7,10.1c0,4-1.1,6.9-4.3,8.6l5.3,15.8h-5.2L120.6,15.5z"/>
<path style="fill:#FF650D;" d="M150.8,26.9c0,4.5-3.6,8.1-8,8.1c-4.4,0-8-3.5-8-8.1V0.1h4.9v26.3c0,2.4,1.3,3.6,3.1,3.6
	c1.7,0,3.1-1.2,3.1-3.6V0.1h4.9V26.9z"/>
<path style="fill:#FF650D;" d="M162.4,16.5l0.4,0c4,0,4.1-2.4,4.1-5.8c0-3.3,0-5.9-3.9-5.9h-2.6v29.9h-4.9V0.1h7.4
	c2.7,0,4.7,0.6,6.4,2.4c1.7,1.8,2.2,4,2.2,8.1c0,3-0.2,5-1.4,6.9c-1.4,2.2-3.5,3.6-7.2,3.6h-0.5V16.5z"/>
<path style="fill:#FF650D;" d="M199.9,29.7h9.8v5H195V0.1h14.7v4.7h-9.8V29.7z"/>
<path style="fill:#FF650D;" d="M212.7,0.1h4.8l7.5,20.8h0.1V0.1h4.9v34.5h-4.7l-7.6-20.8h-0.1v13.6h-4.9V0.1z"/>
<rect x="83.2" y="15.6" style="fill:#808184;" width="4.4" height="4.4"/>
<rect x="202.7" y="15.6" style="fill:#808184;" width="4.4" height="4.4"/>
<rect x="34.7" y="15.6" style="fill:#808184;" width="4.4" height="4.4"/>
<g>
	<g>
		<path style="fill:#A1A1A1;" d="M6.3,56.7L6.3,56.7c-0.5,0.9-1.4,1.2-2.5,1.2c-2.4,0-3.6-2.1-3.6-4.3c0-2.2,1.2-4.2,3.6-4.2
			c0.9,0,1.9,0.4,2.4,1.2h0v-4h2.2v11.1H6.3V56.7z M4.4,51.1c-1.4,0-1.9,1.3-1.9,2.6c0,1.3,0.6,2.6,1.9,2.6c1.4,0,1.9-1.3,1.9-2.6
			C6.3,52.4,5.8,51.1,4.4,51.1z"/>
		<path style="fill:#A1A1A1;" d="M15.2,54.2c0.1,1.4,0.7,2,2,2c0.9,0,1.6-0.5,1.7-1h1.9c-0.6,1.9-1.9,2.7-3.8,2.7
			c-2.5,0-4.1-1.7-4.1-4.2c0-2.4,1.7-4.2,4.1-4.2c2.7,0,4.1,2.3,3.9,4.8H15.2z M18.7,52.8c-0.2-1.1-0.7-1.7-1.8-1.7
			c-1.4,0-1.8,1.1-1.8,1.7H18.7z"/>
		<path style="fill:#A1A1A1;" d="M27.2,55.1c0,0.9,0.8,1.3,1.7,1.3c0.6,0,1.4-0.2,1.4-1c0-0.7-0.9-0.9-2.5-1.2
			c-1.3-0.3-2.5-0.7-2.5-2.1c0-2,1.8-2.6,3.5-2.6c1.7,0,3.4,0.6,3.5,2.6h-2.1c-0.1-0.9-0.7-1.1-1.5-1.1c-0.5,0-1.2,0.1-1.2,0.7
			c0,0.8,1.3,0.9,2.5,1.2c1.3,0.3,2.5,0.8,2.5,2.2c0,2.1-1.8,2.8-3.7,2.8c-1.9,0-3.7-0.7-3.8-2.8H27.2z"/>
		<path style="fill:#A1A1A1;" d="M39.4,48.4h-2.2v-1.8h2.2V48.4z M37.2,49.7h2.2v8h-2.2V49.7z"/>
		<path style="fill:#A1A1A1;" d="M52.1,57.2c0,1.3-0.5,3.6-4.2,3.6c-1.6,0-3.4-0.8-3.5-2.6h2.2c0.2,0.8,0.9,1.1,1.6,1.1
			c1.2,0,1.8-0.8,1.8-2v-1.1h0c-0.5,0.9-1.4,1.2-2.4,1.2c-2.4,0-3.4-1.8-3.4-4c0-2.1,1.2-4,3.4-4c1.1,0,1.8,0.4,2.4,1.3h0v-1.1h2.1
			V57.2z M50,53.6c0-1.3-0.4-2.5-1.9-2.5c-1.2,0-1.8,1.1-1.8,2.3c0,1.1,0.4,2.4,1.8,2.4C49.4,55.8,50,54.7,50,53.6z"/>
		<path style="fill:#A1A1A1;" d="M57.1,49.7h2.1v1.1h0c0.6-0.9,1.5-1.3,2.4-1.3c2.3,0,2.9,1.3,2.9,3.3v4.9h-2.2v-4.5
			c0-1.3-0.4-2-1.4-2c-1.2,0-1.7,0.7-1.7,2.3v4.2h-2.2V49.7z"/>
		<path style="fill:#A1A1A1;" d="M72.1,52.2h-2.4v-2.4h2.4V52.2z M69.7,55.3h2.4v2.4h-2.4V55.3z"/>
		<path style="fill:#A1A1A1;" d="M77.4,46.6h2.2v5.9l2.8-2.9h2.6l-3,2.9l3.4,5.1h-2.7l-2.2-3.6l-0.9,0.8v2.8h-2.2V46.6z"/>
		<path style="fill:#A1A1A1;" d="M93.2,49.5c2.5,0,4.2,1.7,4.2,4.2c0,2.5-1.6,4.2-4.2,4.2c-2.5,0-4.1-1.7-4.1-4.2
			C89.1,51.1,90.7,49.5,93.2,49.5z M93.2,56.3c1.5,0,2-1.3,2-2.6c0-1.3-0.5-2.6-2-2.6c-1.5,0-1.9,1.3-1.9,2.6
			C91.3,55,91.7,56.3,93.2,56.3z"/>
		<path style="fill:#A1A1A1;" d="M102.1,49.7h2.1v1.1h0c0.6-0.8,1.4-1.3,2.4-1.3c1,0,1.9,0.4,2.3,1.3c0.5-0.7,1.3-1.3,2.4-1.3
			c1.7,0,2.9,0.8,2.9,2.9v5.4h-2.2v-4.5c0-1.1-0.1-2-1.3-2c-1.2,0-1.5,1-1.5,2v4.5h-2.2v-4.5c0-0.9,0.1-2-1.3-2
			c-0.4,0-1.5,0.3-1.5,1.8v4.7h-2.2V49.7z"/>
		<path style="fill:#A1A1A1;" d="M119.4,49.7h2.1v1.1h0c0.6-0.8,1.4-1.3,2.4-1.3c1,0,1.9,0.4,2.3,1.3c0.5-0.7,1.3-1.3,2.4-1.3
			c1.7,0,2.9,0.8,2.9,2.9v5.4h-2.2v-4.5c0-1.1-0.1-2-1.3-2c-1.2,0-1.5,1-1.5,2v4.5h-2.2v-4.5c0-0.9,0.1-2-1.3-2
			c-0.4,0-1.5,0.3-1.5,1.8v4.7h-2.2V49.7z"/>
		<path style="fill:#A1A1A1;" d="M144.2,57.7h-2.1v-1.1h0c-0.6,0.9-1.5,1.3-2.4,1.3c-2.3,0-2.9-1.3-2.9-3.3v-4.9h2.2v4.5
			c0,1.3,0.4,2,1.4,2c1.2,0,1.7-0.7,1.7-2.3v-4.2h2.2V57.7z"/>
		<path style="fill:#A1A1A1;" d="M149.2,49.7h2.1v1.1h0c0.6-0.9,1.5-1.3,2.4-1.3c2.3,0,2.9,1.3,2.9,3.3v4.9h-2.2v-4.5
			c0-1.3-0.4-2-1.4-2c-1.2,0-1.7,0.7-1.7,2.3v4.2h-2.2V49.7z"/>
		<path style="fill:#A1A1A1;" d="M163.9,48.4h-2.2v-1.8h2.2V48.4z M161.7,49.7h2.2v8h-2.2V49.7z"/>
		<path style="fill:#A1A1A1;" d="M169.1,46.6h2.2v5.9l2.8-2.9h2.6l-3,2.9l3.4,5.1h-2.7l-2.2-3.6l-0.9,0.8v2.8h-2.2V46.6z"/>
		<path style="fill:#A1A1A1;" d="M181,52.1c0.1-2,2-2.7,3.8-2.7c1.6,0,3.5,0.4,3.5,2.3v4.2c0,0.7,0.1,1.5,0.3,1.8h-2.2
			c-0.1-0.2-0.1-0.5-0.2-0.8c-0.7,0.7-1.7,1-2.7,1c-1.5,0-2.7-0.8-2.7-2.4c0-3.6,5.4-1.7,5.3-3.5c0-0.9-0.7-1.1-1.4-1.1
			c-0.9,0-1.4,0.3-1.5,1.2H181z M186.1,53.8c-0.4,0.3-1.1,0.3-1.8,0.5c-0.7,0.1-1.3,0.4-1.3,1.2c0,0.8,0.6,1,1.3,1
			c1.7,0,1.8-1.3,1.8-1.8V53.8z"/>
		<path style="fill:#A1A1A1;" d="M196.2,49.7h1.6v1.5h-1.6v4c0,0.7,0.2,0.9,0.9,0.9c0.2,0,0.5,0,0.7-0.1v1.7
			c-0.4,0.1-0.9,0.1-1.3,0.1c-1.4,0-2.5-0.3-2.5-1.9v-4.7h-1.3v-1.5h1.3v-2.4h2.2V49.7z"/>
		<path style="fill:#A1A1A1;" d="M204.7,48.4h-2.2v-1.8h2.2V48.4z M202.5,49.7h2.2v8h-2.2V49.7z"/>
		<path style="fill:#A1A1A1;" d="M213.6,49.5c2.5,0,4.2,1.7,4.2,4.2c0,2.5-1.6,4.2-4.2,4.2c-2.5,0-4.1-1.7-4.1-4.2
			C209.5,51.1,211.1,49.5,213.6,49.5z M213.6,56.3c1.5,0,2-1.3,2-2.6c0-1.3-0.4-2.6-2-2.6c-1.5,0-1.9,1.3-1.9,2.6
			C211.7,55,212.1,56.3,213.6,56.3z"/>
		<path style="fill:#A1A1A1;" d="M222.5,49.7h2.1v1.1h0c0.6-0.9,1.5-1.3,2.4-1.3c2.3,0,2.9,1.3,2.9,3.3v4.9h-2.2v-4.5
			c0-1.3-0.4-2-1.4-2c-1.2,0-1.7,0.7-1.7,2.3v4.2h-2.2V49.7z"/>
	</g>
</g>
</svg>
