<?xml version="1.0" encoding="utf-8"?>
<!-- Generator: Adobe Illustrator 23.0.1, SVG Export Plug-In . SVG Version: 6.00 Build 0)  -->
<svg version="1.1" id="Layer_1" xmlns="http://www.w3.org/2000/svg" xmlns:xlink="http://www.w3.org/1999/xlink" x="0px" y="0px"
	 viewBox="0 0 161.2 24.6" style="enable-background:new 0 0 161.2 24.6;" xml:space="preserve">
<style type="text/css">
	.st0{fill:#FFFFFF;}
</style>
<path class="st0" d="M127.8,11.7h0.3c2.8,0,2.9-1.7,2.9-4.1c0-2.3,0-4.1-2.7-4.1h-1.8v20.9H123V0.2h5.2c1.9,0,3.3,0.4,4.5,1.7
	s1.6,2.8,1.6,5.7c0,2.1-0.2,3.5-1,4.9c-1,1.6-2.5,2.5-5,2.5h-0.4L127.8,11.7L127.8,11.7z"/>
<path class="st0" d="M0,0.2h3.3L7.8,13h0.1l4.4-12.8h3.4v24.2h-3.5V9.7h-0.1L8.7,20.1H6.9L3.5,9.7l0,0v14.7H0V0.2z"/>
<path class="st0" d="M22.4,20.9h6.9v3.5H18.9V0.2h10.3v3.3h-6.9L22.4,20.9L22.4,20.9z"/>
<path class="st0" d="M36.3,21.1h0.2c1.9,0,2.7-1,2.7-3V6.5c0-1.9-0.6-3-2.7-3H35v20.9h-3.5V0.2h5.1c3.9,0,6.1,2.3,6.1,6.3v11.3
	c0,4.5-2.3,6.6-6.4,6.6C36.3,24.4,36.3,21.1,36.3,21.1z"/>
<path class="st0" d="M46.1,0.2h3.5v24.2h-3.5V0.2z"/>
<path class="st0" d="M56.4,20.9h6.9v3.5H52.9V0.2h10.3v3.3h-6.9v17.4H56.4z"/>
<path class="st0" d="M71.1,3.5c-1.3,0-2.3,0.8-2.3,2.4v12.8c0,1.7,1.1,2.4,2.3,2.4c1.3,0,2.3-0.8,2.3-2.4v-4.6h-2.8V11h6.2v7.6
	c0,3.9-3,5.9-5.8,5.9s-5.8-2-5.8-5.9V5.9C65.2,2,68.2,0,71,0L71.1,3.5L71.1,3.5z"/>
<path class="st0" d="M84.5,11h0.9c2.4,0,2.8-1.4,2.8-3.8s-0.4-3.8-3-3.8h-1.8v20.9H80V0.2h5.6c4.1,0,6.1,2.4,6.1,7.1
	c0,2.8-0.8,4.8-3,6.1l3.7,11h-3.7L84.5,11z"/>
<path class="st0" d="M105.7,19c0,3.2-2.5,5.6-5.6,5.6s-5.6-2.5-5.6-5.6V0.2H98v18.4c0,1.7,0.9,2.5,2.1,2.5s2.1-0.8,2.1-2.5V0.2h3.5
	V19z"/>
<path class="st0" d="M113.8,11.7h0.3c2.8,0,2.9-1.7,2.9-4.1c0-2.3,0-4.1-2.7-4.1h-1.8v20.9H109V0.2h5.2c1.9,0,3.3,0.4,4.5,1.7
	s1.6,2.8,1.6,5.7c0,2.1-0.2,3.5-1,4.9c-1,1.6-2.5,2.5-5,2.5h-0.4L113.8,11.7L113.8,11.7z"/>
<path class="st0" d="M140.1,20.9h6.9v3.5h-10.3V0.2H147v3.3h-6.9V20.9z"/>
<path class="st0" d="M149.1,0.2h3.3l5.2,14.6h0.1V0.2h3.5v24.2h-3.3l-5.3-14.6h-0.1v9.6H149V0.2H149.1z"/>
<rect x="58.3" y="11.1" class="st0" width="3.1" height="3.1"/>
<rect x="142" y="11.1" class="st0" width="3.1" height="3.1"/>
<rect x="24.3" y="11.1" class="st0" width="3.1" height="3.1"/>
</svg>
