<svg class="megaphone" viewBox="0 0 463.4 544.5">
	<g transform="translate(23.536 28.344)">
		<g transform="translate(1.034 1.114)">
			<path d="M266.9,515.1l-71.3-34.2l-0.1-1.8c-1.3-31.3,16.9-111.3,29.4-147l0.9-2.7l2.7,0.8
				c23.1,6.8,46,15.1,68.1,24.7l2.7,1.2l-1.1,2.7c-12,29.6-32.9,118.9-31.5,151.3L266.9,515.1z M201.4,477l59.2,28.4
				c0.5-37.4,20-117.2,31-146.2c-20.2-8.6-41-16.2-62-22.5C217.5,372.4,200.9,445.9,201.4,477z M384.1,365.9c-4.4,0-8.8-1-12.9-3
				l-28.6-13.7l48.8-118.1l28.9,13.9c15.8,7.6,22.9,27.5,15.9,44.5L413,345.8c-3.5,8.6-10,15-18.2,18.1
				C391.3,365.3,387.7,365.9,384.1,365.9z M350.3,346.2l23.5,11.3c6,2.9,12.6,3.1,18.8,0.8c6.7-2.6,11.9-7.8,14.8-14.8l23.2-56.2
				c5.8-14.1,0-30.6-13-36.8l-23.2-11.2L350.3,346.2z M321.9,339.2l-2.9-1.4C186.2,274.1,90.3,284.4,6.5,305
				c-13.7,3.4-24.2,2.3-28.7-3c-2-2.3-3.8-6.6-0.9-13.6l51.2-124c-14-8.4-20.1-27.1-13.4-43.1c3.5-8.5,10-15,18.2-18.1
				c6.7-2.6,13.9-2.6,20.6-0.2l51.1-123.8c2.8-6.9,6.9-8.4,9.8-8.6c9.7-0.4,18.4,14.5,21.7,20.9c41.9,81,98.9,164.8,231.9,228.6
				l2.6,1.2L321.9,339.2z M121.6,283.1c4.5,0,9.1,0.1,13.8,0.2c60,2.1,119.9,17.7,183.3,47.7l44.2-106.9
				c-63.2-30.7-114.2-68.3-155.8-115c-35.3-39.7-57.5-78.7-76.3-115c-6.4-12.4-12.7-17.8-16.1-17.6c-2.1,0.1-3.6,2.7-4.5,4.9
				L56.7,110.9l-2.9-1.4c-6-2.9-12.7-3.1-18.8-0.8c-6.7,2.6-11.9,7.8-14.8,14.8c-5.8,14.1,0,30.6,13,36.8l2.6,1.2l-53.3,129.1
				c-1.4,3.4-1.4,5.9-0.1,7.4c2.9,3.3,11.8,3.7,22.7,1C39.2,290.7,76.8,283.1,121.6,283.1z"></path>
		</g>
	</g>
</svg>