<?xml version="1.0" encoding="UTF-8"?>
<svg width="24px" height="24px" viewBox="0 0 24 24">
    <g id="Page-1" stroke="none" stroke-width="1" fill="none" fill-rule="evenodd">
        <g id="Desktop-HD" transform="translate(-563.000000, -3118.000000)" fill="#000000" fill-rule="nonzero">
            <g id="Group-8" transform="translate(554.000000, 2941.000000)">
                <path d="M21,179 C26.514,179 31,183.486 31,189 C31,194.514 26.514,199 21,199 C15.486,199 11,194.514 11,189 C11,183.486 15.486,179 21,179 Z M21,177 C14.373,177 9,182.373 9,189 C9,195.627 14.373,201 21,201 C27.627,201 33,195.627 33,189 C33,182.373 27.627,177 21,177 Z M25,194 L17,194 L17,188 L25,188 L25,194 Z M19,188 L19,186 C19,184.896 19.897,184 21,184 C22.103,184 23,184.896 23,186 L23,188 L24,188 L24,186 C24,184.344 22.657,183 21,183 C19.343,183 18,184.344 18,186 L18,188 L19,188 Z" id="Shape"></path>
            </g>
        </g>
    </g>
</svg>