<?xml version="1.0" encoding="UTF-8"?>
<svg width="24px" height="24px" viewBox="0 0 24 24">
    <g id="Page-1" stroke="none" stroke-width="1" fill="none" fill-rule="evenodd">
        <g id="Desktop-HD" transform="translate(-560.000000, -2944.000000)" fill="#000000">
            <g id="Group-8" transform="translate(554.000000, 2941.000000)">
                <g id="iconmonstr-marketing-9" transform="translate(6.000000, 3.000000)">
                    <path d="M18.305,20.418 C17.313,21.033 16.145,21.388 14.894,21.388 C11.306,21.388 8.394,18.469 8.394,14.874 C8.394,11.279 11.306,8.361 14.894,8.361 C18.481,8.361 21.394,11.279 21.394,14.874 C21.394,16.128 21.04,17.299 20.427,18.293 L24,21.873 L21.879,23.999 L18.305,20.418 Z M9.401,19.982 C6.185,19.792 3.376,18.079 1.685,15.555 L6.034,13.044 C6.414,13.537 6.883,13.958 7.417,14.281 C7.402,14.478 7.394,14.677 7.394,14.877 C7.394,16.849 8.156,18.643 9.401,19.982 Z M14.894,10.39 C17.378,10.39 19.394,12.41 19.394,14.899 C19.394,17.388 17.378,19.408 14.894,19.408 C12.41,19.408 10.394,17.388 10.394,14.899 C10.394,12.41 12.41,10.39 14.894,10.39 L14.894,10.39 Z M13.394,17.379 L12.394,17.379 L12.394,15.375 L13.394,15.375 L13.394,17.379 Z M15.394,17.379 L14.394,17.379 L14.394,14.373 L15.394,14.373 L15.394,17.379 Z M17.394,17.379 L16.394,17.379 L16.394,12.419 L17.394,12.419 L17.394,17.379 Z M9.5,0.012 L9.5,5.025 C6.975,5.276 5,7.409 5,10 C5,10.787 5.182,11.531 5.507,12.194 L1.171,14.697 C0.424,13.296 -2.44249065e-15,11.697 -2.44249065e-15,10 C-2.44249065e-15,4.649 4.213,0.273 9.5,0.012 Z M14.272,7.403 C13.476,6.097 12.098,5.184 10.5,5.025 L10.5,0.012 C15.577,0.263 19.664,4.308 19.98,9.368 C18.643,8.132 16.856,7.377 14.894,7.377 C14.685,7.377 14.477,7.386 14.272,7.403 Z" id="Shape"></path>
                </g>
            </g>
        </g>
    </g>
</svg>