<svg class="hero__icon__heart" viewBox="-10 -10 100 90">
    <path d="M62.717,0.983 C75.817,0.983 87.017,12.783 85.017,26.883 C83.517,37.683 77.517,45.783 69.617,52.683 C61.917,59.583 53.017,64.683 43.517,68.683 C43.017,68.883 42.517,68.983 41.917,68.983 C41.617,68.983 41.317,68.983 41.017,68.783 C29.117,63.583 18.117,56.883 9.517,46.883 C4.117,40.683 0.617,33.583 0.017,25.183 C-0.683,14.783 5.517,5.383 15.317,2.083 C17.617,1.283 20.117,0.883 22.417,0.883 C29.817,0.883 37.017,4.583 41.217,11.183 C41.617,11.783 42.017,12.383 42.517,13.183 C45.617,7.683 49.917,3.783 55.917,1.983 C58.317,1.383 60.517,0.983 62.717,0.983 Z"></path>
</svg>