<svg class="hero__icon__megaphone" viewBox="-2 -2 475 548">
    <path class="path" d="M292.47,544.558 L221.17,510.358 L221.07,508.558 C219.77,477.258 237.97,397.258 250.47,361.558 L251.37,358.858 L254.07,359.658 C277.17,366.458 300.07,374.758 322.17,384.358 L324.87,385.558 L323.77,388.258 C311.77,417.858 290.87,507.158 292.27,539.558 L292.47,544.558 Z M409.67,395.358 C405.27,395.358 400.87,394.358 396.77,392.358 L368.17,378.658 L416.97,260.558 L445.87,274.458 C461.67,282.058 468.77,301.958 461.77,318.958 L438.57,375.258 C435.07,383.858 428.57,390.258 420.37,393.358 C416.87,394.758 413.27,395.358 409.67,395.358 Z M347.47,368.658 L344.57,367.258 C211.77,303.558 115.87,313.858 32.07,334.458 C18.37,337.858 7.87,336.758 3.37,331.458 C1.37,329.158 -0.43,324.858 2.47,317.858 L53.67,193.858 C39.67,185.458 33.57,166.758 40.27,150.758 C43.77,142.258 50.27,135.758 58.47,132.658 C65.17,130.058 72.37,130.058 79.07,132.458 L130.17,8.658 C132.97,1.758 137.07,0.258 139.97,0.058 C149.67,-0.342 158.37,14.558 161.67,20.958 C203.57,101.958 260.57,185.758 393.57,249.558 L396.17,250.758 L347.47,368.658 Z"></path>
</svg>