<svg viewBox="0 0 23 24">
<path d="M20.3124516,23.6249961 C21.6581515,23.6249961 22.7499458,22.5332019 22.7499458,21.1875019 L22.7499458,3.31254455 C22.7499458,1.96684464 21.6581515,0.875050366 20.3124516,0.875050366 L2.43749419,0.875050366 C1.09179427,0.875050366 0,1.96684464 0,3.31254455 L0,21.1875019 C0,22.5332019 1.09179427,23.6249961 2.43749419,23.6249961 L20.3124516,23.6249961 Z M8.36366185,18.8465117 C6.47459394,18.8465117 4.72264499,18.2980359 3.24999225,17.3535267 C3.51912232,17.3839755 3.77813583,17.3941417 4.05232417,17.3941417 C5.61131475,17.3941417 7.0433525,16.8660477 8.1859279,15.9722701 C6.72344131,15.9418212 5.49452807,14.9820381 5.07305462,13.6617287 C5.58592418,13.7379004 6.04801262,13.7379004 6.5761562,13.6007814 C5.05272233,13.2910364 3.91014693,11.9503947 3.91014693,10.3305065 L3.91014693,10.2898915 C4.35195267,10.5386893 4.8699301,10.6910327 5.41324851,10.711365 C4.59474994,10.166906 3.93047922,8.92718189 3.93047922,7.94414057 L3.93047922,7.93868556 C3.93047922,7.31919546 4.09293916,6.7504369 4.38240151,6.25785003 C6.02262205,8.27892905 8.48550681,9.5992384 11.2480201,9.74141564 C10.7757655,7.4816554 12.4667672,5.64847649 14.4980123,5.64847649 C15.4577955,5.64847649 16.3210747,6.04966724 16.9304482,6.69965577 C17.681999,6.55747853 18.403101,6.27818232 19.0429233,5.89732385 C18.794076,6.66915734 18.2710403,7.31919546 17.5804368,7.73050277 C18.2507576,7.65938935 18.9007461,7.47153885 19.4999535,7.21252534 C19.0479816,7.87778788 18.4792727,8.46682914 17.8292345,8.93908372 C17.8394007,9.08126096 17.8394007,9.22854607 17.8394007,9.37072332 C17.8394007,13.7734571 14.4878462,18.8465117 8.36366185,18.8465117 Z"></path>
</svg>